<svg width="24" height="24" viewBox="0 0 24 24" fill="none" xmlns="http://www.w3.org/2000/svg">
<path fill-rule="evenodd" clip-rule="evenodd" d="M9.00023 18.7508C9.00023 19.165 9.336 19.5008 9.75023 19.5008H10.1252L10.1261 19.4997C10.3224 19.498 10.5101 19.4191 10.6487 19.2801L13.4282 16.5005L17.9998 16.4993C18.8278 16.4993 19.4998 15.8273 19.4998 14.9993V5.99927C19.4998 5.17052 18.8278 4.49927 17.9998 4.49927H5.99978C5.17178 4.49927 4.50728 5.17052 4.50728 5.99927L4.50023 15.0008C4.50023 15.8292 5.17178 16.5008 6.00023 16.5008H9.00023V18.7508ZM10.5002 17.3072V15.0008H6.00023V6.00077H18.0002V15.0008H12.8067L10.5002 17.3072Z" fill="black"/>
</svg>
